/* XPM */
static char * liquidwar_32x32_xpm[] = {
"32 32 14 1",
" 	c None",
".	c #00FF00",
"+	c #0000FF",
"@	c #FF0000",
"#	c #007F00",
"$	c #7F0000",
"%	c #00007F",
"&	c #333333",
"*	c #4C4C4C",
"=	c #191919",
"-	c #000000",
";	c #007F7F",
">	c #7F007F",
",	c #666667",
"                                ",
"                                ",
"            *%++++++            ",
"         ...#*%+++++++          ",
"        ,....#%%++++++++        ",
"      $$*....;%%++++++++%       ",
"     $@$*....#%%++++++++%.      ",
"     @@$*...##%+++++++++=#.     ",
"    @@@@#....&%+++++++++=#.#    ",
"   @@@@$#...#&%+++++++++&#..    ",
"   @@@@$##..#=++++++++++*....   ",
"   @@@$$*#..#&%++++++++%#....   ",
"  @@@@$$*#..#=%++++++++&#....   ",
"  @@@@@$#...#=%+%=&&++%&#....*  ",
"  @@@@$&#....=%%*###*%%#.....#  ",
"  @@@@$*#....#=*#.###&=#....#&  ",
"  @@@@$&#......#....##&#...##&  ",
"  @@@@$&#.............#....##=  ",
"  @@@@$$#........##.........#   ",
"  @@@@@$&#......###........#*   ",
"   @@@@@$*..####*==#.......#=   ",
"   @@@@@$$###*&$$$$*##....#*+   ",
"    @@@@@@$$$$$$$$$$&#####&%    ",
"    @@@@@@@@$$@@@@$%%&##&&++    ",
"     @@@@@@@@@@@@@$%%+%%++%     ",
"      @@@@@@@@@@@$>+++++++      ",
"       @@@@@@@@@$=%++++++       ",
"        @@@@@@@$$%%+++++        ",
"          @@@$$%++++++          ",
"             -%%++              ",
"                                ",
"                                "};
